<svg width="85" height="14" viewBox="0 0 85 14" fill="none" xmlns="http://www.w3.org/2000/svg">
<g clip-path="url(#clip0_0_1571)">
<circle cx="6.26667" cy="6.99994" r="6.26667" fill="#4640DE"/>
<mask id="path-2-inside-1_0_1571" fill="white">
<path d="M6.26664 11.3083C7.31051 11.3083 8.35439 10.4839 9.03209 9.81169C9.18842 9.65663 9.00017 9.43302 8.8055 9.53592C8.06882 9.92528 7.05705 10.3683 6.26664 10.3683C5.47623 10.3683 4.46445 9.92528 3.72777 9.53592C3.5331 9.43302 3.34485 9.65663 3.50118 9.81169C4.17888 10.4839 5.22276 11.3083 6.26664 11.3083Z"/>
</mask>
<path d="M9.03209 9.81169L8.20462 8.97747V8.97747L9.03209 9.81169ZM3.50118 9.81169L2.67371 10.6459L2.67371 10.6459L3.50118 9.81169ZM3.72777 9.53592L4.27684 8.49709L4.27684 8.49709L3.72777 9.53592ZM8.8055 9.53592L9.35457 10.5747L9.35457 10.5747L8.8055 9.53592ZM9.03209 9.81169L8.20462 8.97747C7.90312 9.27654 7.5455 9.58309 7.17532 9.80863C6.79505 10.0403 6.48879 10.1333 6.26664 10.1333V11.3083V12.4833C7.08837 12.4833 7.82598 12.164 8.39804 11.8155C8.9802 11.4608 9.48336 11.0191 9.85956 10.6459L9.03209 9.81169ZM6.26664 11.3083V10.1333C6.04449 10.1333 5.73823 10.0403 5.35795 9.80862C4.98778 9.58309 4.63016 9.27654 4.32865 8.97747L3.50118 9.81169L2.67371 10.6459C3.04991 11.0191 3.55308 11.4608 4.13524 11.8155C4.70729 12.164 5.44491 12.4833 6.26664 12.4833V11.3083ZM3.72777 9.53592L3.17871 10.5747C3.57644 10.785 4.06653 11.0196 4.57987 11.2039C5.0787 11.3831 5.67603 11.5433 6.26664 11.5433V10.3683V9.19325C6.06684 9.19325 5.76308 9.13192 5.37425 8.99226C4.99993 8.85782 4.61579 8.67624 4.27684 8.49709L3.72777 9.53592ZM6.26664 10.3683V11.5433C6.85725 11.5433 7.45458 11.3831 7.95341 11.2039C8.46675 11.0196 8.95684 10.785 9.35457 10.5747L8.8055 9.53592L8.25644 8.49709C7.91749 8.67624 7.53335 8.85782 7.15903 8.99226C6.7702 9.13192 6.46644 9.19325 6.26664 9.19325V10.3683ZM9.03209 9.81169L9.85956 10.6459C10.0922 10.4151 10.2529 10.0939 10.2644 9.72563C10.2756 9.37148 10.1461 9.05718 9.95425 8.82625C9.5611 8.35299 8.86422 8.17585 8.25644 8.49709L8.8055 9.53592L9.35457 10.5747C8.94145 10.7931 8.43603 10.6763 8.1466 10.3279C8.00662 10.1594 7.90705 9.92362 7.9156 9.6518C7.92458 9.36586 8.05014 9.1307 8.20462 8.97747L9.03209 9.81169ZM3.50118 9.81169L4.32865 8.97747C4.48313 9.1307 4.60869 9.36586 4.61768 9.6518C4.62623 9.92362 4.52666 10.1594 4.38668 10.3279C4.09724 10.6763 3.59182 10.7931 3.17871 10.5747L3.72777 9.53592L4.27684 8.49709C3.66905 8.17585 2.97217 8.35299 2.57903 8.82625C2.38719 9.05718 2.25771 9.37148 2.26884 9.72563C2.28042 10.0939 2.44107 10.4151 2.67371 10.6459L3.50118 9.81169Z" fill="white" mask="url(#path-2-inside-1_0_1571)"/>
<g clip-path="url(#clip1_0_1571)">
<path d="M8.50379 4.38204C8.37849 4.25589 8.37849 4.05366 8.50379 3.9275L9.17685 3.09368L9.17685 3.07921C9.34736 2.91052 9.6238 2.91052 9.79431 3.07921C9.96481 3.2479 9.96481 3.5214 9.79431 3.69009L9.00127 4.38204L8.97164 4.4083C8.90973 4.45721 8.83254 4.48423 8.75253 4.48423C8.65919 4.48423 8.56968 4.44746 8.50379 4.38204ZM3.39441 6.68082C3.39441 5.93831 3.69254 5.22621 4.22323 4.70117C4.75391 4.17614 5.47368 3.88118 6.22418 3.88118C7.78701 3.88118 9.05394 5.13462 9.05394 6.68082C9.05394 8.22702 7.78701 9.48047 6.22418 9.48047C4.66134 9.48047 3.39441 8.22702 3.39441 6.68082Z" fill="white"/>
</g>
</g>
<path d="M21.4289 10.3196L20.9871 9.7744C20.7615 9.87467 20.5234 9.953 20.2727 10.0094C20.022 10.0721 19.7588 10.1034 19.4831 10.1034C18.9943 10.1034 18.54 10.0188 18.1201 9.8496C17.7002 9.67413 17.3305 9.43287 17.0109 9.1258C16.6976 8.81247 16.45 8.45213 16.2683 8.0448C16.0928 7.6312 16.0051 7.18627 16.0051 6.71C16.0051 6.23373 16.0928 5.79193 16.2683 5.3846C16.45 4.971 16.6976 4.61067 17.0109 4.3036C17.3305 3.99027 17.7002 3.749 18.1201 3.5798C18.54 3.40433 18.9943 3.3166 19.4831 3.3166C19.9719 3.3166 20.4262 3.40433 20.8461 3.5798C21.2722 3.749 21.642 3.99027 21.9553 4.3036C22.2749 4.61067 22.5224 4.971 22.6979 5.3846C22.8734 5.79193 22.9611 6.23373 22.9611 6.71C22.9611 7.18 22.8702 7.6218 22.6885 8.0354C22.513 8.44273 22.2718 8.79993 21.9647 9.107L22.6227 9.9248L21.4289 10.3196ZM19.4831 8.8532C19.6084 8.8532 19.7244 8.8438 19.8309 8.825C19.9437 8.79993 20.0502 8.76547 20.1505 8.7216L19.4455 7.838L20.6299 7.4432L21.1187 8.0448C21.2628 7.86307 21.3725 7.6594 21.4477 7.4338C21.5292 7.2082 21.5699 6.96693 21.5699 6.71C21.5699 6.40293 21.5166 6.12093 21.4101 5.864C21.3036 5.6008 21.1563 5.3752 20.9683 5.1872C20.7803 4.99293 20.561 4.84253 20.3103 4.736C20.0596 4.6232 19.7839 4.5668 19.4831 4.5668C19.1886 4.5668 18.9128 4.6232 18.6559 4.736C18.4052 4.84253 18.1859 4.99293 17.9979 5.1872C17.8162 5.3752 17.672 5.6008 17.5655 5.864C17.459 6.12093 17.4057 6.40293 17.4057 6.71C17.4057 7.0108 17.459 7.2928 17.5655 7.556C17.672 7.8192 17.8162 8.04793 17.9979 8.2422C18.1859 8.4302 18.4052 8.5806 18.6559 8.6934C18.9128 8.79993 19.1886 8.8532 19.4831 8.8532ZM25.6258 10.094C25.2498 10.094 24.9145 10.0125 24.62 9.8496C24.3317 9.6804 24.103 9.44853 23.9338 9.154C23.7708 8.85947 23.6894 8.52107 23.6894 8.1388V5.1026H24.9772V7.9508C24.9772 8.26413 25.068 8.5148 25.2498 8.7028C25.4378 8.8908 25.6884 8.9848 26.0018 8.9848C26.2148 8.9848 26.406 8.94407 26.5752 8.8626C26.7506 8.77487 26.8948 8.65267 27.0076 8.496V5.1026H28.2954V10H27.0076V9.6052C26.6316 9.93107 26.171 10.094 25.6258 10.094ZM29.205 10V5.1026H30.4928V10H29.205ZM29.8442 4.5198C29.6437 4.5198 29.4714 4.44773 29.3272 4.3036C29.1831 4.15947 29.111 3.98713 29.111 3.7866C29.111 3.5798 29.1831 3.40747 29.3272 3.2696C29.4714 3.12547 29.6437 3.0534 29.8442 3.0534C30.051 3.0534 30.2234 3.12547 30.3612 3.2696C30.5054 3.40747 30.5774 3.5798 30.5774 3.7866C30.5774 3.98713 30.5054 4.15947 30.3612 4.3036C30.2234 4.44773 30.051 4.5198 29.8442 4.5198ZM33.7466 10.094C33.264 10.094 32.8285 9.98433 32.44 9.765C32.0514 9.5394 31.7444 9.23547 31.5188 8.8532C31.2932 8.46467 31.1804 8.03227 31.1804 7.556C31.1804 7.07347 31.2932 6.64107 31.5188 6.2588C31.7444 5.87653 32.0514 5.5726 32.44 5.347C32.8285 5.1214 33.264 5.0086 33.7466 5.0086C34.1351 5.0086 34.5048 5.0838 34.8558 5.2342C35.213 5.3846 35.52 5.6008 35.777 5.8828L34.9874 6.7194C34.8056 6.51887 34.6145 6.3716 34.414 6.2776C34.2197 6.17733 34.0066 6.1272 33.7748 6.1272C33.5241 6.1272 33.2985 6.18987 33.098 6.3152C32.9037 6.44053 32.747 6.60973 32.628 6.8228C32.5152 7.03587 32.4588 7.28027 32.4588 7.556C32.4588 7.8192 32.5152 8.06047 32.628 8.2798C32.747 8.49287 32.91 8.66207 33.1168 8.7874C33.3236 8.90647 33.5523 8.966 33.803 8.966C34.0223 8.966 34.226 8.92213 34.414 8.8344C34.6082 8.7404 34.7931 8.60253 34.9686 8.4208L35.7394 9.2292C35.4887 9.49867 35.1879 9.71173 34.837 9.8684C34.486 10.0188 34.1226 10.094 33.7466 10.094ZM36.3149 10V3.42L37.6027 3.2038V7.1612L39.7177 5.1026H41.1747L38.8623 7.3492L41.3157 10H39.6707L37.6027 7.7628V10H36.3149ZM41.6481 10V3.42H43.0111V6.0708H46.0379V3.42H47.4009V10H46.0379V7.3022H43.0111V10H41.6481ZM48.4185 10V5.1026H49.7063V10H48.4185ZM49.0577 4.5198C48.8572 4.5198 48.6848 4.44773 48.5407 4.3036C48.3966 4.15947 48.3245 3.98713 48.3245 3.7866C48.3245 3.5798 48.3966 3.40747 48.5407 3.2696C48.6848 3.12547 48.8572 3.0534 49.0577 3.0534C49.2645 3.0534 49.4368 3.12547 49.5747 3.2696C49.7188 3.40747 49.7909 3.5798 49.7909 3.7866C49.7909 3.98713 49.7188 4.15947 49.5747 4.3036C49.4368 4.44773 49.2645 4.5198 49.0577 4.5198ZM50.6194 10V5.1026H51.9072V5.6478C52.0639 5.43473 52.2519 5.2718 52.4712 5.159C52.6905 5.0462 52.9381 4.9898 53.2138 4.9898C53.4519 4.99607 53.6305 5.03367 53.7496 5.1026V6.2306C53.6556 6.18673 53.5522 6.1554 53.4394 6.1366C53.3266 6.11153 53.2107 6.099 53.0916 6.099C52.8409 6.099 52.6122 6.16167 52.4054 6.287C52.1986 6.41233 52.0325 6.59093 51.9072 6.8228V10H50.6194ZM56.5667 10.094C56.0779 10.094 55.633 9.9812 55.2319 9.7556C54.8371 9.53 54.5238 9.22607 54.2919 8.8438C54.0601 8.46153 53.9441 8.03227 53.9441 7.556C53.9441 7.07973 54.0538 6.65047 54.2731 6.2682C54.4987 5.88593 54.8027 5.582 55.1849 5.3564C55.5672 5.1308 55.9933 5.018 56.4633 5.018C56.9333 5.018 57.3501 5.13393 57.7135 5.3658C58.077 5.59767 58.3621 5.911 58.5689 6.3058C58.782 6.7006 58.8885 7.14867 58.8885 7.65V7.9884H55.2601C55.3165 8.18267 55.4074 8.35813 55.5327 8.5148C55.6643 8.67147 55.8241 8.79367 56.0121 8.8814C56.2064 8.96913 56.4132 9.013 56.6325 9.013C56.8519 9.013 57.0524 8.97853 57.2341 8.9096C57.4221 8.84067 57.5819 8.74353 57.7135 8.6182L58.5595 9.389C58.2587 9.6334 57.9485 9.812 57.6289 9.9248C57.3156 10.0376 56.9615 10.094 56.5667 10.094ZM55.2413 7.0672H57.6195C57.5757 6.87293 57.4942 6.70373 57.3751 6.5596C57.2623 6.4092 57.1245 6.29327 56.9615 6.2118C56.8049 6.12407 56.6294 6.0802 56.4351 6.0802C56.2346 6.0802 56.0529 6.12093 55.8899 6.2024C55.727 6.28387 55.5891 6.3998 55.4763 6.5502C55.3698 6.69433 55.2915 6.86667 55.2413 7.0672Z" fill="#202430"/>
<defs>
<clipPath id="clip0_0_1571">
<rect width="12.5333" height="12.5333" fill="white" transform="translate(0 0.733276)"/>
</clipPath>
<clipPath id="clip1_0_1571">
<rect width="7.83333" height="7.83333" fill="white" transform="translate(2.74164 10.1333) rotate(-90)"/>
</clipPath>
</defs>
</svg>
