<svg width="154" height="40" viewBox="0 0 154 40" fill="none" xmlns="http://www.w3.org/2000/svg">
<g opacity="0.3">
<path d="M37.5616 20C37.5616 25.0219 35.5829 29.838 32.0608 33.389C28.5387 36.9399 23.7618 38.9349 18.7808 38.9349C13.7998 38.9349 9.02284 36.9399 5.50076 33.389C1.97868 29.838 0 25.0219 0 20C0 14.9782 1.97868 10.162 5.50076 6.61107C9.02284 3.0601 13.7998 1.06519 18.7808 1.06519C23.7618 1.06519 28.5387 3.0601 32.0608 6.61107C35.5829 10.162 37.5616 14.9782 37.5616 20Z" fill="#202430"/>
<path d="M18.9353 30.5529C13.7744 30.5713 8.4046 26.1376 8.37734 19.0015C8.36826 14.2838 10.8942 9.74935 14.1106 7.05615C17.2635 4.42708 21.5702 2.7507 25.4772 2.73237C25.9331 2.71507 26.3891 2.76444 26.831 2.87894C25.1157 3.26011 23.578 4.21351 22.4667 5.58496C21.3554 6.9564 20.7354 8.66569 20.7071 10.4364C20.7071 10.5646 20.7071 10.6929 20.7252 10.7479C26.4494 12.1494 29.0389 15.6304 29.0571 20.4489C29.0535 21.7832 28.7886 23.1038 28.2774 24.3346C27.7663 25.5654 27.019 26.6823 26.0785 27.6212C25.138 28.5601 24.0228 29.3023 22.7969 29.8055C21.5711 30.3086 20.2588 30.5626 18.9353 30.5529Z" fill="white"/>
<path d="M49.6914 27.8414L43.9581 14.0182H47.7107L51.2996 23.1971L54.7705 14.0182H58.3504L52.7716 27.8414H49.6914ZM68.3359 20.8611C68.34 20.3051 68.2728 19.7509 68.136 19.2122C68.0203 18.7355 67.8169 18.285 67.5363 17.8839C67.2835 17.5204 66.9547 17.2171 66.5732 16.9954C66.1662 16.7637 65.7048 16.6467 65.2376 16.6564C64.7702 16.6462 64.3088 16.7633 63.9019 16.9954C63.5164 17.2151 63.1843 17.5186 62.9297 17.8839C62.6513 18.2884 62.4509 18.7421 62.3391 19.2214C62.203 19.7571 62.1359 20.3082 62.1392 20.8611C62.1347 21.4172 62.2019 21.9714 62.3391 22.51C62.4535 22.9853 62.6471 23.4375 62.9115 23.8474C63.1629 24.2339 63.5071 24.55 63.9123 24.7662C64.3174 24.9824 64.7702 25.0918 65.2285 25.0841C65.6866 25.0982 66.1405 24.9915 66.5452 24.7746C66.9499 24.5577 67.2915 24.2381 67.5363 23.8474C67.813 23.4442 68.016 22.9944 68.136 22.5192C68.274 21.9776 68.3412 21.4202 68.3359 20.8611ZM71.7977 20.8703C71.7978 21.7717 71.6599 22.6678 71.3888 23.5268C71.1245 24.3743 70.7088 25.166 70.1622 25.8628C69.576 26.6061 68.8252 27.2004 67.9699 27.5982C67.1147 27.9959 66.1788 28.1859 65.2376 28.1529C64.2953 28.1837 63.3588 27.9928 62.5024 27.5953C61.6461 27.1978 60.8933 26.6046 60.3039 25.8628C59.7584 25.1652 59.3429 24.3738 59.0772 23.5268C58.5373 21.807 58.5373 19.961 59.0772 18.2412C59.3431 17.4027 59.7588 16.6204 60.3039 15.9327C60.8585 15.2447 61.5564 14.688 62.3482 14.3022C63.2502 13.871 64.2395 13.6577 65.2376 13.6792C66.1729 13.6532 67.1019 13.8426 67.9537 14.2331C68.8055 14.6236 69.5577 15.2049 70.1531 15.9327C70.6982 16.6106 71.1162 17.3801 71.3888 18.2412C71.6614 19.1023 71.7977 19.9817 71.7977 20.8703ZM82.3919 17.0686C81.79 16.813 81.1459 16.6732 80.493 16.6564C79.9825 16.6315 79.474 16.7358 79.0137 16.9598C78.5535 17.1838 78.1562 17.5204 77.858 17.9389C77.571 18.341 77.3558 18.7905 77.222 19.2672C77.081 19.7583 77.0107 20.2674 77.013 20.7787C77.0099 21.3336 77.0709 21.8869 77.1947 22.4276C77.304 22.9159 77.4977 23.3811 77.7672 23.8016C78.0125 24.1887 78.3418 24.5144 78.7303 24.7543C79.1119 24.9925 79.5753 25.1208 80.0932 25.1208C80.5614 25.1103 81.0199 24.9845 81.4288 24.7543C81.8207 24.5681 82.1539 24.2765 82.3919 23.9116V17.0686ZM82.6736 27.8414L82.5373 26.7788C82.1753 27.1753 81.7442 27.5014 81.2653 27.7407C80.5708 28.0402 79.8187 28.1792 79.064 28.1475C78.3094 28.1158 77.5713 27.9142 76.904 27.5575C76.1885 27.1606 75.5682 26.6102 75.0868 25.9452C74.5784 25.2459 74.1969 24.4612 73.9601 23.6276C73.7049 22.7343 73.5764 21.8091 73.5785 20.8794C73.5785 19.9725 73.7057 19.0931 73.9692 18.232C74.2255 17.396 74.6354 16.616 75.1776 15.9327C75.7633 15.2007 76.5098 14.616 77.3582 14.2249C78.2066 13.8338 79.1336 13.647 80.0659 13.6792C80.7928 13.6792 81.5651 13.8167 82.3919 14.0823V8.72339H85.9173V27.8414H82.6736ZM95.8392 21.3558C95.0619 21.4083 94.2883 21.5061 93.5223 21.6489C92.7591 21.8046 92.2321 22.0611 91.9322 22.4367C91.6515 22.7798 91.4974 23.2103 91.4961 23.6551C91.4961 24.1131 91.6597 24.4795 91.9958 24.7543C92.4028 25.0548 92.9005 25.2037 93.4042 25.1757C93.8585 25.1757 94.3128 25.0841 94.7398 24.8918C95.1437 24.714 95.5153 24.4694 95.8392 24.1681V21.3558ZM96.1209 27.8231L95.9846 26.7971C95.5816 27.2371 95.0844 27.5786 94.5308 27.7956C93.3666 28.2602 92.074 28.2798 90.8964 27.8506C90.0509 27.5664 89.3183 27.0161 88.8063 26.2806C88.2943 25.5451 88.0301 24.6633 88.0525 23.765C88.0408 23.16 88.1685 22.5606 88.4254 22.0138C88.6824 21.467 89.0617 20.9878 89.5335 20.6138C90.0103 20.2398 90.5402 19.9403 91.1054 19.7252C92.1876 19.3383 93.3142 19.092 94.4581 18.9924L95.821 18.8641V18.6626C95.821 17.9023 95.6212 17.3618 95.2305 17.032C94.7649 16.6832 94.1921 16.5112 93.6131 16.5465C92.5834 16.5517 91.5804 16.8781 90.742 17.4809C90.5587 17.5982 90.3827 17.7267 90.215 17.8656L89.0429 15.3739C89.6051 14.9439 90.2225 14.5926 90.8783 14.3296C92.5862 13.6139 94.4817 13.4914 96.2663 13.9815C96.8798 14.1749 97.4413 14.5075 97.9075 14.9537C98.3737 15.3999 98.7323 15.9479 98.9557 16.5557C99.2288 17.3219 99.3582 18.1326 99.3373 18.9466V27.8323L96.1209 27.8231ZM110.231 11.8746C109.603 11.5912 108.92 11.4534 108.233 11.4716C107.751 11.4716 107.333 11.6181 107.006 11.9204C106.67 12.2136 106.506 12.6991 106.506 13.3678V14.0182H109.468V16.8854H106.533V27.8414H103.008V16.8854H101.191V14.0182H103.008V13.2853C103.008 12.3784 103.126 11.6181 103.353 10.9952C103.539 10.4372 103.852 9.93098 104.267 9.51727C104.682 9.10356 105.187 8.79397 105.743 8.61347C107.362 8.17757 109.077 8.28366 110.631 8.91576L110.231 11.8746ZM119.844 20.8611C119.847 20.3052 119.78 19.7512 119.645 19.2122C119.529 18.7355 119.325 18.285 119.045 17.8839C118.792 17.5204 118.463 17.2171 118.082 16.9954C117.675 16.7637 117.213 16.6467 116.746 16.6564C116.279 16.6462 115.817 16.7633 115.41 16.9954C115.026 17.2165 114.694 17.5198 114.438 17.8839C114.159 18.2893 113.956 18.7425 113.839 19.2214C113.562 20.303 113.562 21.4376 113.839 22.5192C113.958 22.9912 114.155 23.4401 114.42 23.8474C114.669 24.2253 115.002 24.5391 115.392 24.7635C115.808 24.9894 116.274 25.103 116.746 25.0933C117.204 25.1048 117.656 24.9959 118.059 24.7775C118.462 24.559 118.802 24.2385 119.045 23.8474C119.322 23.4442 119.525 22.9944 119.645 22.5192C119.781 21.9773 119.848 21.4201 119.844 20.8611ZM123.306 20.8703C123.308 21.7719 123.17 22.6682 122.897 23.5268C122.635 24.375 122.219 25.1669 121.671 25.8628C121.085 26.6061 120.334 27.2004 119.478 27.5982C118.623 27.9959 117.687 28.1859 116.746 28.1529C115.804 28.1837 114.867 27.9928 114.011 27.5953C113.155 27.1978 112.402 26.6046 111.812 25.8628C111.267 25.1652 110.851 24.3738 110.586 23.5268C110.039 21.8081 110.039 19.9599 110.586 18.2412C110.849 17.4034 111.261 16.6211 111.803 15.9327C112.361 15.2436 113.062 14.6868 113.857 14.3022C114.759 13.871 115.748 13.6577 116.746 13.6792C117.681 13.6532 118.61 13.8426 119.462 14.2331C120.314 14.6236 121.066 15.2049 121.662 15.9327C122.207 16.6106 122.625 17.3801 122.897 18.2412C123.17 19.1023 123.306 19.9817 123.306 20.8703ZM134.255 27.8414V19.9634C134.309 19.0978 134.079 18.2382 133.601 17.5175C133.388 17.2377 133.112 17.0134 132.796 16.8636C132.48 16.7137 132.133 16.6427 131.783 16.6564C131.244 16.6502 130.715 16.7996 130.257 17.087C129.818 17.3546 129.412 17.6744 129.049 18.0397V27.8414H125.523V14.0182H128.74L128.903 15.1175C130.012 14.1852 131.412 13.676 132.856 13.6792C133.582 13.6792 134.246 13.7892 134.855 14.009C135.449 14.2254 135.982 14.5837 136.408 15.0533C136.853 15.5297 137.19 16.1526 137.426 16.9129C137.662 17.6824 137.78 18.5985 137.78 19.6611V27.8414H134.255ZM148.747 19.2672C148.721 18.8373 148.62 18.4154 148.447 18.0213C148.307 17.6966 148.103 17.4038 147.848 17.1603C147.407 16.7494 146.83 16.5205 146.23 16.519C145.586 16.5307 144.967 16.7744 144.486 17.2061C144.196 17.4669 143.96 17.7837 143.793 18.1376C143.626 18.4916 143.531 18.8756 143.513 19.2672H148.747ZM143.432 21.823C143.504 22.9864 143.868 23.8291 144.522 24.3421C145.242 24.882 146.124 25.1568 147.021 25.1208C147.859 25.1197 148.691 24.9645 149.474 24.6627C149.761 24.5479 150.041 24.4132 150.31 24.2597C150.493 24.1545 150.664 24.0285 150.819 23.8841L151.764 26.7788C151.229 27.1435 150.644 27.4274 150.028 27.6216C148.903 27.9694 147.734 28.1484 146.557 28.1529C145.691 28.156 144.831 28.0104 144.013 27.7224C143.219 27.4429 142.496 26.9893 141.896 26.3941C141.261 25.753 140.766 24.9855 140.442 24.1406C140.058 23.1171 139.873 22.0285 139.897 20.9344C139.897 19.7618 140.07 18.7359 140.397 17.8381C140.804 16.6074 141.59 15.54 142.641 14.7918C143.692 14.0436 144.953 13.6538 146.239 13.6792C147.067 13.6709 147.89 13.8169 148.665 14.1098C149.401 14.3938 150.037 14.8426 150.573 15.4381C151.118 16.0427 151.546 16.8213 151.854 17.7832C152.172 18.7359 152.327 19.8718 152.327 21.1909V21.823H143.432Z" fill="#202430"/>
</g>
</svg>
